<svg width="84" height="20" viewBox="0 0 84 20" fill="none" xmlns="http://www.w3.org/2000/svg">
<g filter="url(#filter0_d_1427_12892)">
<rect x="2" y="1" width="80" height="16" rx="8" fill="white"/>
</g>
<path d="M43.092 10.4073C43.3121 10.1913 43.4221 9.88533 43.4221 9.48933C43.4221 9.09333 43.3121 8.79033 43.092 8.58033C42.872 8.36433 42.6192 8.25633 42.3337 8.25633C42.0482 8.25633 41.7954 8.36433 41.5753 8.58033C41.3553 8.79633 41.2452 9.10233 41.2452 9.49833C41.2452 9.89433 41.3553 10.2003 41.5753 10.4163C41.7954 10.6263 42.0482 10.7313 42.3337 10.7313C42.6192 10.7313 42.872 10.6233 43.092 10.4073ZM40.3531 11.3433C39.9129 10.8633 39.6929 10.2483 39.6929 9.49833C39.6929 8.74833 39.9129 8.13333 40.3531 7.65333C40.7932 7.16733 41.3285 6.92433 41.959 6.92433C42.5954 6.92433 43.0831 7.16133 43.4221 7.63533V5.34033H44.9477V12.0003H43.4221V11.2713C43.0534 11.7993 42.5597 12.0633 41.9411 12.0633C41.3226 12.0633 40.7932 11.8233 40.3531 11.3433Z" fill="#6561E8"/>
<path d="M48.4026 12.0633C47.677 12.0633 47.0822 11.8293 46.6182 11.3613C46.1543 10.8873 45.9224 10.2603 45.9224 9.48033C45.9224 8.70033 46.1513 8.07933 46.6093 7.61733C47.0733 7.15533 47.671 6.92433 48.4026 6.92433C49.1342 6.92433 49.7408 7.15233 50.2226 7.60833C50.7044 8.06433 50.9453 8.69733 50.9453 9.50733C50.9453 9.68133 50.9334 9.84333 50.9096 9.99333H47.4837C47.5134 10.2153 47.6115 10.3983 47.7781 10.5423C47.9446 10.6803 48.123 10.7493 48.3134 10.7493C48.5096 10.7493 48.6554 10.7313 48.7505 10.6953C48.8457 10.6533 48.9141 10.6143 48.9557 10.5783C49.0033 10.5363 49.0628 10.4703 49.1342 10.3803H50.7847C50.6419 10.8843 50.3564 11.2923 49.9282 11.6043C49.4999 11.9103 48.9914 12.0633 48.4026 12.0633ZM49.3572 9.03033C49.3334 8.79633 49.2323 8.60733 49.0539 8.46333C48.8754 8.31333 48.6643 8.23833 48.4204 8.23833C48.1766 8.23833 47.9714 8.31333 47.8048 8.46333C47.6383 8.60733 47.5342 8.79633 47.4926 9.03033H49.3572Z" fill="#6561E8"/>
<path d="M51.9252 12.0003V5.34033H53.4508V12.0003H51.9252Z" fill="#6561E8"/>
<path d="M54.7916 12.0003V6.97833H56.3172V12.0003H54.7916Z" fill="#6561E8"/>
<path d="M57.0246 6.97833H58.6483L59.7814 10.7133L60.9145 6.97833H62.5382L60.7717 12.0003H58.7911L57.0246 6.97833Z" fill="#6561E8"/>
<path d="M65.3572 12.0633C64.6316 12.0633 64.0368 11.8293 63.5729 11.3613C63.109 10.8873 62.877 10.2603 62.877 9.48033C62.877 8.70033 63.106 8.07933 63.564 7.61733C64.0279 7.15533 64.6257 6.92433 65.3572 6.92433C66.0888 6.92433 66.6955 7.15233 67.1773 7.60833C67.659 8.06433 67.8999 8.69733 67.8999 9.50733C67.8999 9.68133 67.888 9.84333 67.8642 9.99333H64.4383C64.468 10.2153 64.5662 10.3983 64.7327 10.5423C64.8993 10.6803 65.0777 10.7493 65.268 10.7493C65.4643 10.7493 65.61 10.7313 65.7052 10.6953C65.8003 10.6533 65.8687 10.6143 65.9104 10.5783C65.958 10.5363 66.0174 10.4703 66.0888 10.3803H67.7393C67.5966 10.8843 67.3111 11.2923 66.8828 11.6043C66.4546 11.9103 65.9461 12.0633 65.3572 12.0633ZM66.3119 9.03033C66.2881 8.79633 66.187 8.60733 66.0085 8.46333C65.8301 8.31333 65.6189 8.23833 65.3751 8.23833C65.1312 8.23833 64.926 8.31333 64.7595 8.46333C64.5929 8.60733 64.4889 8.79633 64.4472 9.03033H66.3119Z" fill="#6561E8"/>
<path d="M70.4054 6.97833V7.91433C70.7623 7.25433 71.2381 6.92433 71.8329 6.92433V8.49033H71.4582C71.1073 8.49033 70.8426 8.57433 70.6642 8.74233C70.4917 8.91033 70.4054 9.20433 70.4054 9.62433V12.0003H68.8798V6.97833H70.4054Z" fill="#6561E8"/>
<path d="M73.9636 11.9013L72.0276 6.97833H73.7584L74.8647 10.2633L76.0781 6.97833H77.6751L74.4989 14.3943H72.902L73.9636 11.9013Z" fill="#6561E8"/>
<path d="M13.2007 5.34033V7.71633C13.5159 7.18833 14.0185 6.92433 14.7084 6.92433C15.2794 6.92433 15.7404 7.11633 16.0913 7.50033C16.4481 7.88433 16.6266 8.40633 16.6266 9.06633V12.0003H15.1099V9.27333C15.1099 8.94933 15.0236 8.70033 14.8512 8.52633C14.6846 8.34633 14.4527 8.25633 14.1553 8.25633C13.8579 8.25633 13.6229 8.34633 13.4505 8.52633C13.2839 8.70033 13.2007 8.94933 13.2007 9.27333V12.0003H11.675V5.34033H13.2007Z" fill="#ED4489"/>
<path d="M20.9107 10.4253C21.1129 10.2093 21.2141 9.89733 21.2141 9.48933C21.2141 9.08133 21.11 8.77233 20.9018 8.56233C20.6936 8.34633 20.4468 8.23833 20.1613 8.23833C19.8758 8.23833 19.629 8.34633 19.4208 8.56233C19.2186 8.77233 19.1175 9.08133 19.1175 9.48933C19.1175 9.89733 19.2215 10.2093 19.4297 10.4253C19.6438 10.6413 19.8936 10.7493 20.1791 10.7493C20.4646 10.7493 20.7085 10.6413 20.9107 10.4253ZM18.3145 11.3523C17.8149 10.8783 17.5651 10.2543 17.5651 9.48033C17.5651 8.70633 17.8149 8.08833 18.3145 7.62633C18.8141 7.15833 19.4327 6.92433 20.1702 6.92433C20.9077 6.92433 21.5233 7.15833 22.017 7.62633C22.5166 8.08833 22.7664 8.70633 22.7664 9.48033C22.7664 10.2543 22.5196 10.8783 22.0259 11.3523C21.5323 11.8263 20.9167 12.0633 20.1791 12.0633C19.4416 12.0633 18.8201 11.8263 18.3145 11.3523Z" fill="#ED4489"/>
<path d="M25.2763 6.97833V7.71633C25.5915 7.18833 26.0941 6.92433 26.784 6.92433C27.1528 6.92433 27.4799 7.00833 27.7654 7.17633C28.0569 7.34433 28.2829 7.58433 28.4435 7.89633C28.6278 7.60233 28.8658 7.36833 29.1572 7.19433C29.4546 7.01433 29.7847 6.92433 30.1475 6.92433C30.7542 6.92433 31.2359 7.11333 31.5928 7.49133C31.9497 7.86933 32.1281 8.39433 32.1281 9.06633V12.0003H30.6114V9.27333C30.6114 8.94933 30.5252 8.70033 30.3527 8.52633C30.1862 8.34633 29.9542 8.25633 29.6568 8.25633C29.3594 8.25633 29.1245 8.34633 28.952 8.52633C28.7855 8.70033 28.7022 8.94933 28.7022 9.27333V12.0003H27.1855V9.27333C27.1855 8.94933 27.0993 8.70033 26.9268 8.52633C26.7602 8.34633 26.5283 8.25633 26.2309 8.25633C25.9335 8.25633 25.6986 8.34633 25.5261 8.52633C25.3595 8.70033 25.2763 8.94933 25.2763 9.27333V12.0003H23.7507V6.97833H25.2763Z" fill="#ED4489"/>
<path d="M35.5361 12.0633C34.8104 12.0633 34.2156 11.8293 33.7517 11.3613C33.2878 10.8873 33.0558 10.2603 33.0558 9.48033C33.0558 8.70033 33.2848 8.07933 33.7428 7.61733C34.2067 7.15533 34.8045 6.92433 35.5361 6.92433C36.2676 6.92433 36.8743 7.15233 37.3561 7.60833C37.8378 8.06433 38.0787 8.69733 38.0787 9.50733C38.0787 9.68133 38.0668 9.84333 38.043 9.99333H34.6171C34.6469 10.2153 34.745 10.3983 34.9115 10.5423C35.0781 10.6803 35.2565 10.7493 35.4468 10.7493C35.6431 10.7493 35.7888 10.7313 35.884 10.6953C35.9792 10.6533 36.0476 10.6143 36.0892 10.5783C36.1368 10.5363 36.1963 10.4703 36.2676 10.3803H37.9181C37.7754 10.8843 37.4899 11.2923 37.0617 11.6043C36.6334 11.9103 36.1249 12.0633 35.5361 12.0633ZM36.4907 9.03033C36.4669 8.79633 36.3658 8.60733 36.1873 8.46333C36.0089 8.31333 35.7978 8.23833 35.5539 8.23833C35.31 8.23833 35.1048 8.31333 34.9383 8.46333C34.7718 8.60733 34.6677 8.79633 34.626 9.03033H36.4907Z" fill="#ED4489"/>
<path d="M55.2295 3.89678C55.3146 3.63467 55.6855 3.63467 55.7706 3.89678L55.8589 4.16837C55.897 4.28559 56.0062 4.36495 56.1294 4.36495H56.415C56.6906 4.36495 56.8052 4.71762 56.5822 4.87961L56.3512 5.04746C56.2515 5.11991 56.2098 5.24832 56.2479 5.36554L56.3361 5.63713C56.4213 5.89924 56.1213 6.1172 55.8983 5.95521L55.6673 5.78735C55.5676 5.71491 55.4325 5.71491 55.3328 5.78735L55.1018 5.95521C54.8788 6.1172 54.5788 5.89924 54.664 5.63713L54.7522 5.36554C54.7903 5.24832 54.7486 5.11991 54.6489 5.04746L54.4179 4.87961C54.1949 4.71762 54.3095 4.36495 54.5851 4.36495H54.8707C54.9939 4.36495 55.1031 4.28559 55.1412 4.16837L55.2295 3.89678Z" fill="#6561E8"/>
<path fill-rule="evenodd" clip-rule="evenodd" d="M6 7.43994C6 7.1638 6.22386 6.93994 6.5 6.93994H10H10.5V7.93994H10H6.5C6.22386 7.93994 6 7.71608 6 7.43994ZM8 9.43994C8 9.1638 8.22386 8.93994 8.5 8.93994H10H10.5V9.93994H10H8.5C8.22386 9.93994 8 9.71608 8 9.43994ZM9 10.9399C8.72386 10.9399 8.5 11.1638 8.5 11.4399C8.5 11.7161 8.72386 11.9399 9 11.9399H10H10.5V10.9399H10H9Z" fill="#ED4489"/>
<defs>
<filter id="filter0_d_1427_12892" x="0" y="0" width="84" height="20" filterUnits="userSpaceOnUse" color-interpolation-filters="sRGB">
<feFlood flood-opacity="0" result="BackgroundImageFix"/>
<feColorMatrix in="SourceAlpha" type="matrix" values="0 0 0 0 0 0 0 0 0 0 0 0 0 0 0 0 0 0 127 0" result="hardAlpha"/>
<feOffset dy="1"/>
<feGaussianBlur stdDeviation="1"/>
<feColorMatrix type="matrix" values="0 0 0 0 0.215104 0 0 0 0 0.24276 0 0 0 0 0.491667 0 0 0 0.12 0"/>
<feBlend mode="normal" in2="BackgroundImageFix" result="effect1_dropShadow_1427_12892"/>
<feBlend mode="normal" in="SourceGraphic" in2="effect1_dropShadow_1427_12892" result="shape"/>
</filter>
</defs>
</svg>
