<svg width="18" height="18" viewBox="0 0 18 18" fill="none" xmlns="http://www.w3.org/2000/svg">
<mask id="path-1-outside-1_1022_2478" maskUnits="userSpaceOnUse" x="0" y="0" width="18" height="18" fill="black">
<rect fill="white" width="18" height="18"/>
<path fill-rule="evenodd" clip-rule="evenodd" d="M15.0786 2.14489H11.9644L11.9332 2.14415C11.902 2.14155 11.8711 2.13783 11.8403 2.13078C11.7693 2.11481 11.7013 2.08435 11.6418 2.04202C11.4868 1.93246 11.3973 1.74604 11.4077 1.55664C11.4106 1.50465 11.421 1.45303 11.4381 1.404C11.4589 1.34496 11.4894 1.28925 11.5284 1.2406C11.5742 1.18341 11.6307 1.1355 11.6946 1.10022C11.7496 1.07014 11.8094 1.04897 11.8711 1.03858C11.8986 1.03412 11.9053 1.03412 11.9332 1.03152C13.4343 0.989555 14.9377 0.989555 16.4389 1.03115H16.4452L16.4497 1.03152H16.4556C16.4608 1.03226 16.466 1.03263 16.4712 1.03301L16.4868 1.03412C16.5232 1.03969 16.5329 1.04006 16.5686 1.04972C16.5805 1.05306 16.592 1.0564 16.6035 1.06012L16.6084 1.06197L16.6191 1.06606L16.6288 1.0694L16.6377 1.07311L16.6433 1.07571C16.6704 1.08723 16.6961 1.10059 16.721 1.11619C16.7682 1.1459 16.8105 1.1823 16.847 1.22463C16.8644 1.24506 16.8804 1.2666 16.8949 1.28925L16.896 1.29111C16.9128 1.31748 16.9272 1.34533 16.9395 1.37467C16.954 1.40995 16.964 1.4456 16.9711 1.48236L16.9722 1.48793C16.9737 1.49685 16.9752 1.50539 16.9763 1.51393C16.9782 1.52804 16.9797 1.54215 16.9811 1.55664C17.0231 3.05177 16.9819 4.5484 16.9819 6.04428C16.9811 6.07213 16.9815 6.07919 16.9785 6.10667C16.9715 6.16869 16.9536 6.22959 16.9265 6.28604C16.8949 6.35177 16.8503 6.41119 16.7961 6.45947C16.757 6.49438 16.7132 6.52372 16.6663 6.546C16.4853 6.63327 16.2657 6.6147 16.1018 6.49846C16.0509 6.46244 16.0059 6.4175 15.9698 6.36663C15.9215 6.29867 15.8888 6.21993 15.8747 6.13749C15.8695 6.10667 15.8676 6.07584 15.8669 6.04428V2.93256L8.6421 10.152C8.61497 10.1769 8.60865 10.1843 8.57892 10.2062C8.53395 10.2393 8.48452 10.2653 8.43174 10.2838C8.36633 10.3069 8.29645 10.3173 8.22695 10.3147C8.04447 10.308 7.87276 10.2088 7.77575 10.0543C7.74602 10.0072 7.72372 9.95592 7.70923 9.90207C7.69473 9.8486 7.68841 9.79252 7.69064 9.73718C7.69436 9.63988 7.72372 9.54407 7.77575 9.46163C7.79805 9.42598 7.82481 9.39478 7.85343 9.36396L15.0786 2.14489Z"/>
<path d="M8.30047 2.51888C8.34693 2.52556 8.3592 2.52556 8.40454 2.53893C8.50675 2.56864 8.59929 2.62806 8.66879 2.70828C8.70373 2.74839 8.73272 2.79332 8.75465 2.8416C8.77695 2.88988 8.79181 2.9415 8.79962 2.99386C8.82229 3.15244 8.77435 3.31658 8.66916 3.43802C8.62271 3.4915 8.56621 3.53606 8.5034 3.56837C8.44059 3.60068 8.37146 3.62111 8.30084 3.62779C8.28338 3.62965 8.26554 3.62965 8.24807 3.63039C7.85708 3.63039 7.46609 3.63076 7.07509 3.63225C6.44364 3.63596 5.81181 3.64079 5.18109 3.67533C4.83061 3.69427 4.47976 3.72212 4.13263 3.77597C4.03859 3.79045 3.94456 3.80716 3.85128 3.82647C3.78772 3.83984 3.72454 3.85433 3.66173 3.87067C3.37109 3.94568 3.0771 4.05635 2.8489 4.25763C2.80578 4.29551 2.76564 4.33674 2.72811 4.38056C2.61438 4.51314 2.53038 4.66874 2.46608 4.83029C2.3884 5.02489 2.33637 5.22951 2.29697 5.43488C2.24085 5.72492 2.20815 6.01904 2.1851 6.3128C2.14534 6.81081 2.13196 7.3103 2.12415 7.80979C2.11746 8.25729 2.11597 8.70516 2.1156 9.15304C2.11523 9.55635 2.11523 9.95965 2.1156 10.363C2.11597 10.9297 2.1182 11.4968 2.13233 12.0635C2.14496 12.5596 2.16503 13.0573 2.22153 13.5508C2.23639 13.6808 2.25423 13.81 2.27579 13.9389C2.31593 14.1751 2.36908 14.4113 2.45382 14.6359C2.52369 14.8213 2.61698 15.0003 2.74929 15.1492C3.00946 15.4426 3.39339 15.5815 3.76579 15.668C3.8431 15.6858 3.92115 15.7018 3.9992 15.7159C4.09806 15.7337 4.19767 15.7489 4.29727 15.7619C4.80534 15.8295 5.31935 15.8518 5.83113 15.8663C6.43509 15.883 7.03979 15.8849 7.64411 15.8852C8.04625 15.8856 8.44877 15.8856 8.85128 15.8852C9.3389 15.8849 9.82615 15.883 10.3138 15.8737C10.8021 15.8644 11.2909 15.8492 11.7778 15.8061C12.0639 15.7809 12.3505 15.7463 12.6319 15.6873C12.8697 15.6372 13.1072 15.5703 13.325 15.4608C13.454 15.3961 13.5751 15.3152 13.6792 15.2145C13.9383 14.9642 14.068 14.6129 14.1512 14.2698C14.1668 14.2052 14.1809 14.1398 14.194 14.0744C14.2129 13.9786 14.2289 13.8821 14.243 13.7851C14.2627 13.6492 14.2783 13.5126 14.2917 13.3759C14.3341 12.9388 14.3519 12.4991 14.3631 12.0598C14.3824 11.2929 14.3798 10.5253 14.3802 9.75763L14.3828 9.70489C14.3854 9.68744 14.3869 9.66961 14.3902 9.65216C14.4036 9.58271 14.4303 9.51624 14.469 9.45645C14.4976 9.41188 14.5325 9.3714 14.5727 9.33687C14.6942 9.23177 14.8585 9.18386 15.0172 9.20652C15.07 9.21431 15.1213 9.22917 15.1696 9.25145C15.2339 9.28079 15.2926 9.32238 15.3413 9.37363C15.4149 9.45088 15.465 9.54855 15.4851 9.6529C15.494 9.69932 15.4929 9.71121 15.4952 9.75837C15.4948 10.1498 15.4948 10.5412 15.4929 10.9326C15.4907 11.3178 15.4873 11.7029 15.4777 12.088C15.471 12.3509 15.4617 12.6138 15.4468 12.8764C15.4357 13.0792 15.4212 13.2816 15.4015 13.4836C15.3896 13.608 15.3755 13.732 15.3588 13.8561C15.3469 13.9441 15.3339 14.0321 15.319 14.1197C15.2257 14.6694 15.067 15.2238 14.7399 15.6828C14.6905 15.7527 14.6374 15.8195 14.5809 15.8834C14.4924 15.9833 14.395 16.0761 14.291 16.1597C14.1375 16.283 13.9691 16.387 13.7922 16.4731C13.3945 16.6666 12.9582 16.771 12.523 16.8389C12.2089 16.8879 11.8919 16.918 11.5748 16.9392C11.2429 16.9618 10.9099 16.9741 10.5773 16.9823C10.099 16.9945 9.62025 16.9975 9.14192 16.999C8.64203 17.0005 8.14252 17.0001 7.64263 16.9994C7.06803 16.999 6.49307 16.9971 5.91847 16.983C5.3896 16.97 4.8596 16.9485 4.3337 16.8891C4.21328 16.8753 4.09286 16.8597 3.97318 16.8411C3.3945 16.7513 2.80578 16.5949 2.32188 16.2522C2.25238 16.2031 2.1851 16.15 2.12118 16.094C2.02975 16.0134 1.94501 15.9261 1.86696 15.8325C1.81232 15.7671 1.76141 15.6984 1.71383 15.6275C1.4139 15.1804 1.26561 14.6504 1.17641 14.1249C1.15671 14.0068 1.13961 13.8888 1.12474 13.7699C1.10913 13.644 1.09613 13.5174 1.08498 13.3911C1.06639 13.1854 1.05301 12.9796 1.04298 12.7735C1.02737 12.4653 1.01845 12.1571 1.0125 11.8488C1.00507 11.4503 1.00247 11.0522 1.00135 10.6537C0.999494 10.1531 0.999866 9.65253 1.00061 9.15192C1.00098 8.61641 1.00284 8.08089 1.01399 7.54538C1.02031 7.24234 1.02997 6.93893 1.04632 6.63626C1.0571 6.43349 1.07123 6.2311 1.09055 6.02907C1.10505 5.87458 1.12289 5.72046 1.14481 5.56709C1.15708 5.48019 1.17083 5.39366 1.18644 5.30713C1.2801 4.78721 1.43694 4.26469 1.7458 3.82907C1.79523 3.75963 1.848 3.69278 1.9045 3.6289C1.99295 3.52863 2.08996 3.43616 2.1944 3.35223C2.35718 3.22114 2.53707 3.11233 2.72625 3.0232C3.08862 2.85311 3.48147 2.7547 3.87506 2.68897C4.15121 2.64292 4.42959 2.61246 4.70833 2.59018C4.99191 2.56753 5.27624 2.55342 5.56093 2.54339C5.97274 2.52891 6.38491 2.52296 6.79709 2.51999C7.28062 2.51591 7.76416 2.51665 8.24732 2.51628C8.26516 2.51702 8.28263 2.51776 8.30047 2.51888Z"/>
</mask>
<path fill-rule="evenodd" clip-rule="evenodd" d="M15.0786 2.14489H11.9644L11.9332 2.14415C11.902 2.14155 11.8711 2.13783 11.8403 2.13078C11.7693 2.11481 11.7013 2.08435 11.6418 2.04202C11.4868 1.93246 11.3973 1.74604 11.4077 1.55664C11.4106 1.50465 11.421 1.45303 11.4381 1.404C11.4589 1.34496 11.4894 1.28925 11.5284 1.2406C11.5742 1.18341 11.6307 1.1355 11.6946 1.10022C11.7496 1.07014 11.8094 1.04897 11.8711 1.03858C11.8986 1.03412 11.9053 1.03412 11.9332 1.03152C13.4343 0.989555 14.9377 0.989555 16.4389 1.03115H16.4452L16.4497 1.03152H16.4556C16.4608 1.03226 16.466 1.03263 16.4712 1.03301L16.4868 1.03412C16.5232 1.03969 16.5329 1.04006 16.5686 1.04972C16.5805 1.05306 16.592 1.0564 16.6035 1.06012L16.6084 1.06197L16.6191 1.06606L16.6288 1.0694L16.6377 1.07311L16.6433 1.07571C16.6704 1.08723 16.6961 1.10059 16.721 1.11619C16.7682 1.1459 16.8105 1.1823 16.847 1.22463C16.8644 1.24506 16.8804 1.2666 16.8949 1.28925L16.896 1.29111C16.9128 1.31748 16.9272 1.34533 16.9395 1.37467C16.954 1.40995 16.964 1.4456 16.9711 1.48236L16.9722 1.48793C16.9737 1.49685 16.9752 1.50539 16.9763 1.51393C16.9782 1.52804 16.9797 1.54215 16.9811 1.55664C17.0231 3.05177 16.9819 4.5484 16.9819 6.04428C16.9811 6.07213 16.9815 6.07919 16.9785 6.10667C16.9715 6.16869 16.9536 6.22959 16.9265 6.28604C16.8949 6.35177 16.8503 6.41119 16.7961 6.45947C16.757 6.49438 16.7132 6.52372 16.6663 6.546C16.4853 6.63327 16.2657 6.6147 16.1018 6.49846C16.0509 6.46244 16.0059 6.4175 15.9698 6.36663C15.9215 6.29867 15.8888 6.21993 15.8747 6.13749C15.8695 6.10667 15.8676 6.07584 15.8669 6.04428V2.93256L8.6421 10.152C8.61497 10.1769 8.60865 10.1843 8.57892 10.2062C8.53395 10.2393 8.48452 10.2653 8.43174 10.2838C8.36633 10.3069 8.29645 10.3173 8.22695 10.3147C8.04447 10.308 7.87276 10.2088 7.77575 10.0543C7.74602 10.0072 7.72372 9.95592 7.70923 9.90207C7.69473 9.8486 7.68841 9.79252 7.69064 9.73718C7.69436 9.63988 7.72372 9.54407 7.77575 9.46163C7.79805 9.42598 7.82481 9.39478 7.85343 9.36396L15.0786 2.14489Z" fill="#6561E8"/>
<path d="M8.30047 2.51888C8.34693 2.52556 8.3592 2.52556 8.40454 2.53893C8.50675 2.56864 8.59929 2.62806 8.66879 2.70828C8.70373 2.74839 8.73272 2.79332 8.75465 2.8416C8.77695 2.88988 8.79181 2.9415 8.79962 2.99386C8.82229 3.15244 8.77435 3.31658 8.66916 3.43802C8.62271 3.4915 8.56621 3.53606 8.5034 3.56837C8.44059 3.60068 8.37146 3.62111 8.30084 3.62779C8.28338 3.62965 8.26554 3.62965 8.24807 3.63039C7.85708 3.63039 7.46609 3.63076 7.07509 3.63225C6.44364 3.63596 5.81181 3.64079 5.18109 3.67533C4.83061 3.69427 4.47976 3.72212 4.13263 3.77597C4.03859 3.79045 3.94456 3.80716 3.85128 3.82647C3.78772 3.83984 3.72454 3.85433 3.66173 3.87067C3.37109 3.94568 3.0771 4.05635 2.8489 4.25763C2.80578 4.29551 2.76564 4.33674 2.72811 4.38056C2.61438 4.51314 2.53038 4.66874 2.46608 4.83029C2.3884 5.02489 2.33637 5.22951 2.29697 5.43488C2.24085 5.72492 2.20815 6.01904 2.1851 6.3128C2.14534 6.81081 2.13196 7.3103 2.12415 7.80979C2.11746 8.25729 2.11597 8.70516 2.1156 9.15304C2.11523 9.55635 2.11523 9.95965 2.1156 10.363C2.11597 10.9297 2.1182 11.4968 2.13233 12.0635C2.14496 12.5596 2.16503 13.0573 2.22153 13.5508C2.23639 13.6808 2.25423 13.81 2.27579 13.9389C2.31593 14.1751 2.36908 14.4113 2.45382 14.6359C2.52369 14.8213 2.61698 15.0003 2.74929 15.1492C3.00946 15.4426 3.39339 15.5815 3.76579 15.668C3.8431 15.6858 3.92115 15.7018 3.9992 15.7159C4.09806 15.7337 4.19767 15.7489 4.29727 15.7619C4.80534 15.8295 5.31935 15.8518 5.83113 15.8663C6.43509 15.883 7.03979 15.8849 7.64411 15.8852C8.04625 15.8856 8.44877 15.8856 8.85128 15.8852C9.3389 15.8849 9.82615 15.883 10.3138 15.8737C10.8021 15.8644 11.2909 15.8492 11.7778 15.8061C12.0639 15.7809 12.3505 15.7463 12.6319 15.6873C12.8697 15.6372 13.1072 15.5703 13.325 15.4608C13.454 15.3961 13.5751 15.3152 13.6792 15.2145C13.9383 14.9642 14.068 14.6129 14.1512 14.2698C14.1668 14.2052 14.1809 14.1398 14.194 14.0744C14.2129 13.9786 14.2289 13.8821 14.243 13.7851C14.2627 13.6492 14.2783 13.5126 14.2917 13.3759C14.3341 12.9388 14.3519 12.4991 14.3631 12.0598C14.3824 11.2929 14.3798 10.5253 14.3802 9.75763L14.3828 9.70489C14.3854 9.68744 14.3869 9.66961 14.3902 9.65216C14.4036 9.58271 14.4303 9.51624 14.469 9.45645C14.4976 9.41188 14.5325 9.3714 14.5727 9.33687C14.6942 9.23177 14.8585 9.18386 15.0172 9.20652C15.07 9.21431 15.1213 9.22917 15.1696 9.25145C15.2339 9.28079 15.2926 9.32238 15.3413 9.37363C15.4149 9.45088 15.465 9.54855 15.4851 9.6529C15.494 9.69932 15.4929 9.71121 15.4952 9.75837C15.4948 10.1498 15.4948 10.5412 15.4929 10.9326C15.4907 11.3178 15.4873 11.7029 15.4777 12.088C15.471 12.3509 15.4617 12.6138 15.4468 12.8764C15.4357 13.0792 15.4212 13.2816 15.4015 13.4836C15.3896 13.608 15.3755 13.732 15.3588 13.8561C15.3469 13.9441 15.3339 14.0321 15.319 14.1197C15.2257 14.6694 15.067 15.2238 14.7399 15.6828C14.6905 15.7527 14.6374 15.8195 14.5809 15.8834C14.4924 15.9833 14.395 16.0761 14.291 16.1597C14.1375 16.283 13.9691 16.387 13.7922 16.4731C13.3945 16.6666 12.9582 16.771 12.523 16.8389C12.2089 16.8879 11.8919 16.918 11.5748 16.9392C11.2429 16.9618 10.9099 16.9741 10.5773 16.9823C10.099 16.9945 9.62025 16.9975 9.14192 16.999C8.64203 17.0005 8.14252 17.0001 7.64263 16.9994C7.06803 16.999 6.49307 16.9971 5.91847 16.983C5.3896 16.97 4.8596 16.9485 4.3337 16.8891C4.21328 16.8753 4.09286 16.8597 3.97318 16.8411C3.3945 16.7513 2.80578 16.5949 2.32188 16.2522C2.25238 16.2031 2.1851 16.15 2.12118 16.094C2.02975 16.0134 1.94501 15.9261 1.86696 15.8325C1.81232 15.7671 1.76141 15.6984 1.71383 15.6275C1.4139 15.1804 1.26561 14.6504 1.17641 14.1249C1.15671 14.0068 1.13961 13.8888 1.12474 13.7699C1.10913 13.644 1.09613 13.5174 1.08498 13.3911C1.06639 13.1854 1.05301 12.9796 1.04298 12.7735C1.02737 12.4653 1.01845 12.1571 1.0125 11.8488C1.00507 11.4503 1.00247 11.0522 1.00135 10.6537C0.999494 10.1531 0.999866 9.65253 1.00061 9.15192C1.00098 8.61641 1.00284 8.08089 1.01399 7.54538C1.02031 7.24234 1.02997 6.93893 1.04632 6.63626C1.0571 6.43349 1.07123 6.2311 1.09055 6.02907C1.10505 5.87458 1.12289 5.72046 1.14481 5.56709C1.15708 5.48019 1.17083 5.39366 1.18644 5.30713C1.2801 4.78721 1.43694 4.26469 1.7458 3.82907C1.79523 3.75963 1.848 3.69278 1.9045 3.6289C1.99295 3.52863 2.08996 3.43616 2.1944 3.35223C2.35718 3.22114 2.53707 3.11233 2.72625 3.0232C3.08862 2.85311 3.48147 2.7547 3.87506 2.68897C4.15121 2.64292 4.42959 2.61246 4.70833 2.59018C4.99191 2.56753 5.27624 2.55342 5.56093 2.54339C5.97274 2.52891 6.38491 2.52296 6.79709 2.51999C7.28062 2.51591 7.76416 2.51665 8.24732 2.51628C8.26516 2.51702 8.28263 2.51776 8.30047 2.51888Z" fill="#6561E8"/>
<path fill-rule="evenodd" clip-rule="evenodd" d="M15.0786 2.14489H11.9644L11.9332 2.14415C11.902 2.14155 11.8711 2.13783 11.8403 2.13078C11.7693 2.11481 11.7013 2.08435 11.6418 2.04202C11.4868 1.93246 11.3973 1.74604 11.4077 1.55664C11.4106 1.50465 11.421 1.45303 11.4381 1.404C11.4589 1.34496 11.4894 1.28925 11.5284 1.2406C11.5742 1.18341 11.6307 1.1355 11.6946 1.10022C11.7496 1.07014 11.8094 1.04897 11.8711 1.03858C11.8986 1.03412 11.9053 1.03412 11.9332 1.03152C13.4343 0.989555 14.9377 0.989555 16.4389 1.03115H16.4452L16.4497 1.03152H16.4556C16.4608 1.03226 16.466 1.03263 16.4712 1.03301L16.4868 1.03412C16.5232 1.03969 16.5329 1.04006 16.5686 1.04972C16.5805 1.05306 16.592 1.0564 16.6035 1.06012L16.6084 1.06197L16.6191 1.06606L16.6288 1.0694L16.6377 1.07311L16.6433 1.07571C16.6704 1.08723 16.6961 1.10059 16.721 1.11619C16.7682 1.1459 16.8105 1.1823 16.847 1.22463C16.8644 1.24506 16.8804 1.2666 16.8949 1.28925L16.896 1.29111C16.9128 1.31748 16.9272 1.34533 16.9395 1.37467C16.954 1.40995 16.964 1.4456 16.9711 1.48236L16.9722 1.48793C16.9737 1.49685 16.9752 1.50539 16.9763 1.51393C16.9782 1.52804 16.9797 1.54215 16.9811 1.55664C17.0231 3.05177 16.9819 4.5484 16.9819 6.04428C16.9811 6.07213 16.9815 6.07919 16.9785 6.10667C16.9715 6.16869 16.9536 6.22959 16.9265 6.28604C16.8949 6.35177 16.8503 6.41119 16.7961 6.45947C16.757 6.49438 16.7132 6.52372 16.6663 6.546C16.4853 6.63327 16.2657 6.6147 16.1018 6.49846C16.0509 6.46244 16.0059 6.4175 15.9698 6.36663C15.9215 6.29867 15.8888 6.21993 15.8747 6.13749C15.8695 6.10667 15.8676 6.07584 15.8669 6.04428V2.93256L8.6421 10.152C8.61497 10.1769 8.60865 10.1843 8.57892 10.2062C8.53395 10.2393 8.48452 10.2653 8.43174 10.2838C8.36633 10.3069 8.29645 10.3173 8.22695 10.3147C8.04447 10.308 7.87276 10.2088 7.77575 10.0543C7.74602 10.0072 7.72372 9.95592 7.70923 9.90207C7.69473 9.8486 7.68841 9.79252 7.69064 9.73718C7.69436 9.63988 7.72372 9.54407 7.77575 9.46163C7.79805 9.42598 7.82481 9.39478 7.85343 9.36396L15.0786 2.14489Z" stroke="#6561E8" stroke-width="0.8" mask="url(#path-1-outside-1_1022_2478)"/>
<path d="M8.30047 2.51888C8.34693 2.52556 8.3592 2.52556 8.40454 2.53893C8.50675 2.56864 8.59929 2.62806 8.66879 2.70828C8.70373 2.74839 8.73272 2.79332 8.75465 2.8416C8.77695 2.88988 8.79181 2.9415 8.79962 2.99386C8.82229 3.15244 8.77435 3.31658 8.66916 3.43802C8.62271 3.4915 8.56621 3.53606 8.5034 3.56837C8.44059 3.60068 8.37146 3.62111 8.30084 3.62779C8.28338 3.62965 8.26554 3.62965 8.24807 3.63039C7.85708 3.63039 7.46609 3.63076 7.07509 3.63225C6.44364 3.63596 5.81181 3.64079 5.18109 3.67533C4.83061 3.69427 4.47976 3.72212 4.13263 3.77597C4.03859 3.79045 3.94456 3.80716 3.85128 3.82647C3.78772 3.83984 3.72454 3.85433 3.66173 3.87067C3.37109 3.94568 3.0771 4.05635 2.8489 4.25763C2.80578 4.29551 2.76564 4.33674 2.72811 4.38056C2.61438 4.51314 2.53038 4.66874 2.46608 4.83029C2.3884 5.02489 2.33637 5.22951 2.29697 5.43488C2.24085 5.72492 2.20815 6.01904 2.1851 6.3128C2.14534 6.81081 2.13196 7.3103 2.12415 7.80979C2.11746 8.25729 2.11597 8.70516 2.1156 9.15304C2.11523 9.55635 2.11523 9.95965 2.1156 10.363C2.11597 10.9297 2.1182 11.4968 2.13233 12.0635C2.14496 12.5596 2.16503 13.0573 2.22153 13.5508C2.23639 13.6808 2.25423 13.81 2.27579 13.9389C2.31593 14.1751 2.36908 14.4113 2.45382 14.6359C2.52369 14.8213 2.61698 15.0003 2.74929 15.1492C3.00946 15.4426 3.39339 15.5815 3.76579 15.668C3.8431 15.6858 3.92115 15.7018 3.9992 15.7159C4.09806 15.7337 4.19767 15.7489 4.29727 15.7619C4.80534 15.8295 5.31935 15.8518 5.83113 15.8663C6.43509 15.883 7.03979 15.8849 7.64411 15.8852C8.04625 15.8856 8.44877 15.8856 8.85128 15.8852C9.3389 15.8849 9.82615 15.883 10.3138 15.8737C10.8021 15.8644 11.2909 15.8492 11.7778 15.8061C12.0639 15.7809 12.3505 15.7463 12.6319 15.6873C12.8697 15.6372 13.1072 15.5703 13.325 15.4608C13.454 15.3961 13.5751 15.3152 13.6792 15.2145C13.9383 14.9642 14.068 14.6129 14.1512 14.2698C14.1668 14.2052 14.1809 14.1398 14.194 14.0744C14.2129 13.9786 14.2289 13.8821 14.243 13.7851C14.2627 13.6492 14.2783 13.5126 14.2917 13.3759C14.3341 12.9388 14.3519 12.4991 14.3631 12.0598C14.3824 11.2929 14.3798 10.5253 14.3802 9.75763L14.3828 9.70489C14.3854 9.68744 14.3869 9.66961 14.3902 9.65216C14.4036 9.58271 14.4303 9.51624 14.469 9.45645C14.4976 9.41188 14.5325 9.3714 14.5727 9.33687C14.6942 9.23177 14.8585 9.18386 15.0172 9.20652C15.07 9.21431 15.1213 9.22917 15.1696 9.25145C15.2339 9.28079 15.2926 9.32238 15.3413 9.37363C15.4149 9.45088 15.465 9.54855 15.4851 9.6529C15.494 9.69932 15.4929 9.71121 15.4952 9.75837C15.4948 10.1498 15.4948 10.5412 15.4929 10.9326C15.4907 11.3178 15.4873 11.7029 15.4777 12.088C15.471 12.3509 15.4617 12.6138 15.4468 12.8764C15.4357 13.0792 15.4212 13.2816 15.4015 13.4836C15.3896 13.608 15.3755 13.732 15.3588 13.8561C15.3469 13.9441 15.3339 14.0321 15.319 14.1197C15.2257 14.6694 15.067 15.2238 14.7399 15.6828C14.6905 15.7527 14.6374 15.8195 14.5809 15.8834C14.4924 15.9833 14.395 16.0761 14.291 16.1597C14.1375 16.283 13.9691 16.387 13.7922 16.4731C13.3945 16.6666 12.9582 16.771 12.523 16.8389C12.2089 16.8879 11.8919 16.918 11.5748 16.9392C11.2429 16.9618 10.9099 16.9741 10.5773 16.9823C10.099 16.9945 9.62025 16.9975 9.14192 16.999C8.64203 17.0005 8.14252 17.0001 7.64263 16.9994C7.06803 16.999 6.49307 16.9971 5.91847 16.983C5.3896 16.97 4.8596 16.9485 4.3337 16.8891C4.21328 16.8753 4.09286 16.8597 3.97318 16.8411C3.3945 16.7513 2.80578 16.5949 2.32188 16.2522C2.25238 16.2031 2.1851 16.15 2.12118 16.094C2.02975 16.0134 1.94501 15.9261 1.86696 15.8325C1.81232 15.7671 1.76141 15.6984 1.71383 15.6275C1.4139 15.1804 1.26561 14.6504 1.17641 14.1249C1.15671 14.0068 1.13961 13.8888 1.12474 13.7699C1.10913 13.644 1.09613 13.5174 1.08498 13.3911C1.06639 13.1854 1.05301 12.9796 1.04298 12.7735C1.02737 12.4653 1.01845 12.1571 1.0125 11.8488C1.00507 11.4503 1.00247 11.0522 1.00135 10.6537C0.999494 10.1531 0.999866 9.65253 1.00061 9.15192C1.00098 8.61641 1.00284 8.08089 1.01399 7.54538C1.02031 7.24234 1.02997 6.93893 1.04632 6.63626C1.0571 6.43349 1.07123 6.2311 1.09055 6.02907C1.10505 5.87458 1.12289 5.72046 1.14481 5.56709C1.15708 5.48019 1.17083 5.39366 1.18644 5.30713C1.2801 4.78721 1.43694 4.26469 1.7458 3.82907C1.79523 3.75963 1.848 3.69278 1.9045 3.6289C1.99295 3.52863 2.08996 3.43616 2.1944 3.35223C2.35718 3.22114 2.53707 3.11233 2.72625 3.0232C3.08862 2.85311 3.48147 2.7547 3.87506 2.68897C4.15121 2.64292 4.42959 2.61246 4.70833 2.59018C4.99191 2.56753 5.27624 2.55342 5.56093 2.54339C5.97274 2.52891 6.38491 2.52296 6.79709 2.51999C7.28062 2.51591 7.76416 2.51665 8.24732 2.51628C8.26516 2.51702 8.28263 2.51776 8.30047 2.51888Z" stroke="#6561E8" stroke-width="0.8" mask="url(#path-1-outside-1_1022_2478)"/>
</svg>
