<svg xmlns="http://www.w3.org/2000/svg" width="16" height="16" viewBox="0 0 16 16">
    <g fill-opacity=".87">
        <path d="M4.375 2.625C4.375 1.175 3.395 0 2.187 0 .98 0 0 1.175 0 2.625 0 3.877.732 4.92 1.709 5.183L.884 12.54c-.006.048-.009.098-.009.148 0 .724.588 1.312 1.313 1.312.724 0 1.312-.588 1.312-1.313 0-.041-.002-.083-.006-.125l-.702-7.427c.912-.316 1.583-1.314 1.583-2.51zM10.063 0c-.242 0-.438.196-.438.438v2.187c0 .241-.196.438-.438.438-.241 0-.437-.197-.437-.438V.437C8.75.197 8.554 0 8.312 0c-.241 0-.437.196-.437.438v2.187c0 .241-.196.438-.438.438-.241 0-.437-.197-.437-.438V.437C7 .197 6.804 0 6.562 0c-.241 0-.437.196-.437.438v2.624c0 1.04.731 1.911 1.707 2.131l-.824 7.347c-.005.048-.008.098-.008.148C7 13.412 7.588 14 8.313 14c.724 0 1.312-.588 1.312-1.313 0-.041-.002-.083-.006-.125l-.7-7.408c.91-.265 1.581-1.098 1.581-2.091V.437c0-.241-.196-.437-.438-.437z" transform="translate(2.5 1)"/>
    </g>
</svg>
