<svg xmlns="http://www.w3.org/2000/svg" xmlns:xlink="http://www.w3.org/1999/xlink" width="52" height="52" viewBox="0 0 52 52">
    <defs>
        <circle id="b" cx="20" cy="20" r="20"/>
        <filter id="a" width="150%" height="150%" x="-25%" y="-17.5%" filterUnits="objectBoundingBox">
            <feMorphology in="SourceAlpha" operator="dilate" radius="1" result="shadowSpreadOuter1"/>
            <feOffset dy="3" in="shadowSpreadOuter1" result="shadowOffsetOuter1"/>
            <feGaussianBlur in="shadowOffsetOuter1" result="shadowBlurOuter1" stdDeviation="2.5"/>
            <feComposite in="shadowBlurOuter1" in2="SourceAlpha" operator="out" result="shadowBlurOuter1"/>
            <feColorMatrix in="shadowBlurOuter1" values="0 0 0 0 0 0 0 0 0 0 0 0 0 0 0 0 0 0 0.15 0"/>
        </filter>
    </defs>
    <g fill="none" fill-rule="evenodd">
        <g transform="translate(6 3)">
            <use fill="#000" filter="url(#a)" xlink:href="#b"/>
            <use fill="#4099FF" stroke="#FFF" stroke-width="2" xlink:href="#b"/>
        </g>
        <path fill="#FFF" d="M36 16.798a8.192 8.192 0 0 1-2.356.646 4.12 4.12 0 0 0 1.804-2.269 8.27 8.27 0 0 1-2.607.996 4.103 4.103 0 0 0-6.991 3.742 11.647 11.647 0 0 1-8.457-4.288 4.074 4.074 0 0 0-.554 2.063c0 1.424.724 2.68 1.824 3.415a4.102 4.102 0 0 1-1.858-.515v.051a4.108 4.108 0 0 0 3.29 4.024 4.155 4.155 0 0 1-1.08.144c-.266 0-.522-.026-.773-.076a4.105 4.105 0 0 0 3.832 2.85 8.23 8.23 0 0 1-5.095 1.754c-.332 0-.658-.02-.979-.056a11.595 11.595 0 0 0 6.289 1.846c7.547 0 11.673-6.253 11.673-11.676l-.014-.531A8.194 8.194 0 0 0 36 16.798z"/>
    </g>
</svg>
