<svg xmlns="http://www.w3.org/2000/svg" xmlns:xlink="http://www.w3.org/1999/xlink" width="52" height="52" viewBox="0 0 52 52">
    <defs>
        <rect id="b" width="40" height="40" rx="20"/>
        <filter id="a" width="150%" height="150%" x="-25%" y="-17.5%" filterUnits="objectBoundingBox">
            <feMorphology in="SourceAlpha" operator="dilate" radius="1" result="shadowSpreadOuter1"/>
            <feOffset dy="3" in="shadowSpreadOuter1" result="shadowOffsetOuter1"/>
            <feGaussianBlur in="shadowOffsetOuter1" result="shadowBlurOuter1" stdDeviation="2.5"/>
            <feComposite in="shadowBlurOuter1" in2="SourceAlpha" operator="out" result="shadowBlurOuter1"/>
            <feColorMatrix in="shadowBlurOuter1" values="0 0 0 0 0 0 0 0 0 0 0 0 0 0 0 0 0 0 0.14 0"/>
        </filter>
        <path id="c" d="M0 0h19.993v19.994H0z"/>
    </defs>
    <g fill="none" fill-rule="evenodd">
        <g fill-rule="nonzero">
            <rect width="40" height="40" fill="#000" rx="20" transform="translate(6 3)"/>
            <g transform="translate(6 3)">
                <use fill="#000" filter="url(#a)" xlink:href="#b"/>
                <use fill="#25D366" fill-rule="evenodd" stroke="#FFF" stroke-width="2" xlink:href="#b"/>
            </g>
        </g>
        <g transform="translate(16 13)">
            <mask id="d" fill="#fff">
                <use xlink:href="#c"/>
            </mask>
            <path fill="#FFF" fill-rule="nonzero" d="M14.577 11.982c-.249-.124-1.472-.723-1.7-.806-.228-.082-.393-.124-.56.124-.165.248-.642.805-.787.97-.145.166-.29.187-.539.063-.249-.124-1.05-.386-2-1.23-.74-.656-1.239-1.466-1.384-1.714-.145-.248-.015-.382.11-.505.111-.111.248-.29.372-.434.125-.144.166-.248.25-.413.082-.165.04-.31-.022-.434-.062-.123-.56-1.342-.767-1.838-.201-.482-.407-.417-.56-.425-.144-.007-.31-.008-.476-.008a.916.916 0 0 0-.663.31c-.228.247-.87.846-.87 2.065 0 1.218.89 2.395 1.015 2.56.124.166 1.754 2.666 4.25 3.738.463.199.936.373 1.417.522.596.188 1.138.162 1.567.098.478-.071 1.471-.599 1.679-1.177.207-.578.207-1.074.145-1.177-.062-.104-.228-.166-.477-.29M10.04 18.15h-.004a8.292 8.292 0 0 1-4.211-1.148l-.302-.178-3.132.817.836-3.038-.197-.312a8.186 8.186 0 0 1-1.265-4.383c.002-4.54 3.714-8.234 8.278-8.234a8.243 8.243 0 0 1 5.85 2.415 8.165 8.165 0 0 1 2.42 5.826c-.001 4.54-3.713 8.235-8.273 8.235m7.04-15.244A9.914 9.914 0 0 0 10.038 0C4.551 0 .086 4.444.083 9.907c0 1.746.458 3.45 1.33 4.953L0 19.994l5.277-1.378a9.983 9.983 0 0 0 4.757 1.206h.005c5.486 0 9.952-4.444 9.954-9.907a9.824 9.824 0 0 0-2.913-7.01" mask="url(#d)"/>
        </g>
    </g>
</svg>
